# xmcd CD database file
#
# Track frame offsets:
#	150
#	12763
#	22592
#	35992
#	47961
#	61576
#	74384
#	85576
#	97682
#	108746
#	121176
#	135987
#	152312
#	165242
#	176532
#	185584
#	197485
#	208667
#	219160
#	230635
#
# Disc length: 3229 seconds
#
# Revision: 0
# Processed by: cddbd v1.5.2PL0 Copyright (c) Steve Scherf et al.
# Submitted via: CDex 1.50
#
DISCID=f40c9b14
DTITLE=B. B. King - Blues Boy   [CD1]
DYEAR=2006
DGENRE=Blues
TTITLE0=Every Day (I Have the Blues)
TTITLE1=Jump With You Baby
TTITLE2=Ruby Lee
TTITLE3=Shut Your Mouth
TTITLE4=You Upset Me Baby
TTITLE5=The Woman I Love
TTITLE6=Bye Bye Baby
TTITLE7=Miss Martha King
TTITLE8=When Your Baby Packs Up and Goes
TTITLE9=Mistreated Woman
TTITLE10=B. B.'s Boogie
TTITLE11=The Other Night Blues
TTITLE12=Walkin' and Cryin'
TTITLE13=She's Dynamite
TTITLE14=My Baby's Gone
TTITLE15=Don't You Want A Man Like Me?
TTITLE16=B. B.'s Blues
TTITLE17=That Ain't The Way To Do It
TTITLE18=She's A Mean Woman
TTITLE19=Hard Workin' Woman
EXTD=YEAR: 2006
EXTT0=
EXTT1=
EXTT2=
EXTT3=
EXTT4=
EXTT5=
EXTT6=
EXTT7=
EXTT8=
EXTT9=
EXTT10=
EXTT11=
EXTT12=
EXTT13=
EXTT14=
EXTT15=
EXTT16=
EXTT17=
EXTT18=
EXTT19=
PLAYORDER=
